<svg width="20" height="20" viewBox="0 0 20 20" fill="none" xmlns="http://www.w3.org/2000/svg">
<mask id="mask0_611_36" style="mask-type:alpha" maskUnits="userSpaceOnUse" x="1" y="0" width="18" height="20">
<path fill-rule="evenodd" clip-rule="evenodd" d="M15.8334 2.49992H16.6667C17.5834 2.49992 18.3334 3.24992 18.3334 4.16658V17.4999C18.3334 18.4166 17.5834 19.1666 16.6667 19.1666H3.33341C2.41675 19.1666 1.66675 18.4166 1.66675 17.4999V4.16658C1.66675 3.24992 2.41675 2.49992 3.33341 2.49992H4.16675V1.66659C4.16675 1.20825 4.54175 0.833252 5.00008 0.833252C5.45841 0.833252 5.83342 1.20825 5.83342 1.66659V2.49992H14.1667V1.66659C14.1667 1.20825 14.5417 0.833252 15.0001 0.833252C15.4584 0.833252 15.8334 1.20825 15.8334 1.66659V2.49992ZM4.16675 17.4999H15.8334C16.2917 17.4999 16.6667 17.1249 16.6667 16.6666V6.66658H3.33341V16.6666C3.33341 17.1249 3.70841 17.4999 4.16675 17.4999Z" fill="black"/>
</mask>
<g mask="url(#mask0_611_36)">
<rect width="20" height="20" fill="#8E8E8E"/>
</g>
</svg>
