<svg width="30" height="31" viewBox="0 0 30 31" fill="none" xmlns="http://www.w3.org/2000/svg">
<path d="M25.9851 0.0410156H3.88988C1.98417 0.0410156 0.4375 1.64102 0.4375 3.61244V26.4696C0.4375 28.441 1.98417 30.041 3.88988 30.041H25.9851C27.8908 30.041 29.4375 28.441 29.4375 26.4696V3.61244C29.4375 1.64102 27.8908 0.0410156 25.9851 0.0410156ZM23.2232 10.7553H21.8423C20.3646 10.7553 19.7708 11.1124 19.7708 12.1839V14.3267H23.2232L22.5327 17.8982H19.7708V28.6124H16.3185V17.8982H13.5565V14.3267H16.3185V12.1839C16.3185 9.32673 17.6994 7.18387 20.4613 7.18387C22.4637 7.18387 23.2232 7.89816 23.2232 7.89816V10.7553Z" fill="#BABABA"/>
</svg>
