<svg width="800" height="800" viewBox="0 0 24 24" fill="none" xmlns="http://www.w3.org/2000/svg"><path fill-rule="evenodd" clip-rule="evenodd" d="M11.993 5.097A5.415 5.415 0 008.408 3.75C5.421 3.75 3 6.15 3 9.11c0 1.363.506 2.614 1.352 3.56L12 20.25l7.422-7.356.219-.23A5.313 5.313 0 0021 9.11c0-2.96-2.421-5.36-5.408-5.36-1.375 0-2.63.509-3.585 1.347L12 5.09l-.007.007zM12 7.099l.055.049.853-.846.089-.078a3.915 3.915 0 012.595-.974c2.171 0 3.908 1.74 3.908 3.86 0 .971-.361 1.857-.964 2.538l-.187.197L12 18.138 5.443 11.64A3.825 3.825 0 014.5 9.11c0-2.118 1.737-3.859 3.908-3.859.999 0 1.905.368 2.595.974l.09.078.852.846.055-.049z" fill="#080341"/></svg>