<svg width="800" height="800" viewBox="0 0 24 24" fill="none" xmlns="http://www.w3.org/2000/svg"><path fill-rule="evenodd" clip-rule="evenodd" d="M22 10.76v6.837a3.333 3.333 0 01-3.333 3.333h-1.223a1 1 0 01-1-1v-.222a1 1 0 011-1h1.223c.613 0 1.11-.498 1.11-1.111V10.76c0-.346-.16-.672-.435-.882L12.675 4.78a1.111 1.111 0 00-1.35 0L4.658 9.878c-.275.21-.436.536-.436.882v6.837c0 .613.498 1.11 1.111 1.11h1.223a1 1 0 011 1v.223a1 1 0 01-1 1H5.333A3.333 3.333 0 012 17.597V10.76c0-1.038.484-2.017 1.308-2.648l6.667-5.098a3.333 3.333 0 014.05 0l6.667 5.098A3.333 3.333 0 0122 10.76zm-10.111.392h.222a3 3 0 013 3v3.556a3 3 0 01-3 3h-.222a3 3 0 01-3-3v-3.556a3 3 0 013-3zm1.222 3a1 1 0 00-1-1h-.222a1 1 0 00-1 1v3.556a1 1 0 001 1h.222a1 1 0 001-1v-3.556z" fill="#000"/></svg>