<svg width="31" height="31" viewBox="0 0 31 31" fill="none" xmlns="http://www.w3.org/2000/svg">
<g clip-path="url(#clip0_1_3000)">
<path opacity="0.985" fill-rule="evenodd" clip-rule="evenodd" d="M6.9707 0.0117188C12.5957 0.0117188 18.2207 0.0117188 23.8457 0.0117188C27.4984 0.734725 29.6859 2.92222 30.4082 6.57422C30.4082 12.1992 30.4082 17.8242 30.4082 23.4492C29.6856 27.1015 27.498 29.2891 23.8457 30.0117C18.2207 30.0117 12.5957 30.0117 6.9707 30.0117C3.31836 29.2891 1.13086 27.1015 0.408203 23.4492C0.408203 17.8242 0.408203 12.1992 0.408203 6.57422C1.13051 2.92222 3.31801 0.734725 6.9707 0.0117188ZM7.49805 2.53125C12.7715 2.52148 18.045 2.53125 23.3184 2.56055C25.2958 2.80036 26.6923 3.82575 27.5078 5.63672C27.6989 6.1275 27.8161 6.63533 27.8594 7.16016C27.8985 12.3945 27.8985 17.6289 27.8594 22.8633C27.643 24.8692 26.6177 26.2853 24.7832 27.1113C24.3104 27.293 23.8221 27.4102 23.3184 27.4629C18.0449 27.502 12.7715 27.502 7.49805 27.4629C5.52057 27.2231 4.12409 26.1977 3.30859 24.3867C3.11754 23.8959 3.00035 23.3881 2.95703 22.8633C2.89961 17.4713 2.91914 12.0807 3.01562 6.69141C3.58279 4.29783 5.07693 2.91111 7.49805 2.53125ZM14.998 10.0312C17.7041 10.0335 19.4522 11.3225 20.2422 13.8984C20.6258 15.9902 19.9911 17.6992 18.3379 19.0254C16.266 20.359 14.2347 20.3004 12.2441 18.8496C10.5304 17.2584 10.0519 15.3541 10.8086 13.1367C11.6334 11.3251 13.0299 10.2899 14.998 10.0312Z" fill="#BABABA"/>
<path opacity="0.963" fill-rule="evenodd" clip-rule="evenodd" d="M23.1426 4.99214C24.7135 4.9516 25.4654 5.71332 25.3985 7.27729C24.9648 8.54409 24.0957 9.00305 22.7911 8.65425C21.8377 8.16341 21.4763 7.3919 21.7071 6.33979C21.9449 5.63071 22.4235 5.18149 23.1426 4.99214Z" fill="#BABABA"/>
<path opacity="0.974" fill-rule="evenodd" clip-rule="evenodd" d="M14.4708 7.51168C17.18 7.29131 19.4358 8.18973 21.2384 10.207C23.02 12.5765 23.391 15.1546 22.3517 17.9414C20.7548 21.2161 18.1279 22.7298 14.4708 22.4824C11.5322 22.0043 9.49114 20.393 8.3478 17.6484C7.3203 14.3452 8.0723 11.5229 10.6037 9.1816C11.7501 8.28588 13.0392 7.72924 14.4708 7.51168ZM14.9982 10.0312C13.03 10.2898 11.6335 11.325 10.8087 13.1367C10.0521 15.3541 10.5306 17.2584 12.2443 18.8496C14.2349 20.3004 16.2661 20.3589 18.338 19.0254C19.9912 17.6991 20.6259 15.9901 20.2423 13.8984C19.4523 11.3225 17.7043 10.0334 14.9982 10.0312Z" fill="#BABABA"/>
</g>
<defs>
<clipPath id="clip0_1_3000">
<rect width="30" height="30" fill="white" transform="translate(0.4375 0.0410156)"/>
</clipPath>
</defs>
</svg>
