<svg width="31" height="31" fill="none" xmlns="http://www.w3.org/2000/svg"><g clip-path="url(#prefix__clip0_1_3000)" fill-rule="evenodd" clip-rule="evenodd" fill="#BABABA"><path opacity=".985" d="M6.97.012h16.876c3.652.723 5.84 2.91 6.562 6.562V23.45c-.722 3.652-2.91 5.84-6.562 6.563H6.97c-3.653-.723-5.84-2.91-6.563-6.563V6.574C1.131 2.922 3.318.734 6.971.012zm.528 2.52c5.273-.01 10.547 0 15.82.029 1.978.24 3.374 1.265 4.19 3.076a5.4 5.4 0 01.351 1.523c.04 5.235.04 10.469 0 15.703-.216 2.006-1.241 3.422-3.076 4.248a5.727 5.727 0 01-1.465.352c-5.273.039-10.547.039-15.82 0-1.977-.24-3.374-1.265-4.19-3.076a5.403 5.403 0 01-.351-1.524 566.454 566.454 0 01.059-16.172c.567-2.393 2.06-3.78 4.482-4.16zm7.5 7.5c2.706.002 4.454 1.29 5.244 3.866.384 2.092-.25 3.801-1.904 5.127-2.072 1.334-4.103 1.275-6.094-.175-1.714-1.592-2.192-3.496-1.435-5.713.824-1.812 2.22-2.847 4.189-3.106z"/><path opacity=".963" d="M23.143 4.992c1.57-.04 2.322.721 2.255 2.285-.433 1.267-1.302 1.726-2.607 1.377-.953-.49-1.315-1.262-1.084-2.314.238-.71.716-1.159 1.436-1.348z"/><path opacity=".974" d="M14.47 7.512c2.71-.22 4.966.678 6.768 2.695 1.782 2.37 2.153 4.948 1.114 7.734-1.597 3.275-4.224 4.789-7.881 4.541-2.939-.478-4.98-2.089-6.123-4.834-1.028-3.303-.276-6.125 2.256-8.466a8.177 8.177 0 013.867-1.67zm.528 2.52c-1.968.258-3.364 1.293-4.19 3.105-.756 2.217-.277 4.121 1.436 5.713 1.99 1.45 4.022 1.509 6.094.175 1.653-1.326 2.288-3.035 1.904-5.127-.79-2.575-2.538-3.865-5.244-3.867z"/></g><defs><clipPath id="prefix__clip0_1_3000"><path fill="#fff" transform="translate(.438 .041)" d="M0 0h30v30H0z"/></clipPath></defs></svg>