<svg width="800" height="800" viewBox="0 0 24 24" fill="none" xmlns="http://www.w3.org/2000/svg"><path fill-rule="evenodd" clip-rule="evenodd" d="M5.25 10.055V8a6.75 6.75 0 0113.5 0v2.055c1.115.083 1.84.293 2.371.824C22 11.757 22 13.172 22 16c0 2.828 0 4.243-.879 5.121C20.243 22 18.828 22 16 22H8c-2.828 0-4.243 0-5.121-.879C2 20.243 2 18.828 2 16c0-2.828 0-4.243.879-5.121.53-.531 1.256-.741 2.371-.824zM6.75 8a5.25 5.25 0 0110.5 0v2.004C16.867 10 16.451 10 16 10H8c-.452 0-.867 0-1.25.004V8z" fill="#1C274C"/></svg>