<svg width="61" height="76" viewBox="0 0 61 76" fill="none" xmlns="http://www.w3.org/2000/svg">
<g clip-path="url(#clip0_601_3)">
<path d="M58.1378 45.1117C57.5551 42.9333 56.074 41.3482 54.1069 39.8761C50.9687 36.6494 49.9539 35.2056 48.3989 33.3803C47.8134 32.6937 47.279 32.722 46.9435 32.7869C46.4119 32.8915 46.0708 33.4057 45.9514 33.8126C45.8008 34.3297 45.9628 34.81 46.1277 35.1914C46.5058 36.0702 46.8497 36.6494 47.1766 37.0902C47.0487 37.093 46.9208 37.0986 46.79 37.1099C46.3238 37.1467 45.8861 37.2201 45.4625 37.3134C44.5699 36.5901 43.6745 35.8639 42.7819 35.1406C40.7437 33.4538 39.0353 32.4564 38.3559 32.4507C37.8983 32.4479 37.6083 32.6315 37.6083 32.6315C37.307 32.8209 37.1706 33.1232 37.1364 33.2588C36.9602 33.9963 38.5663 35.1575 40.07 36.316C40.7466 36.8359 41.6676 37.562 42.7677 38.4775C42.6767 38.5425 42.5943 38.6159 42.5062 38.6837C41.4487 37.8304 40.3884 36.98 39.331 36.1267C36.9829 34.2025 35.0443 33.0243 34.2995 32.9734C33.7992 32.9367 33.495 33.1119 33.495 33.1119C33.1795 33.2899 33.0516 33.6007 33.026 33.742C32.8867 34.5077 34.7259 35.8498 36.4514 37.1778C37.4662 37.9576 38.9614 39.1358 40.7693 40.6672C40.6869 40.8057 40.6101 40.947 40.5391 41.0882C40.0644 40.7011 39.5925 40.3169 39.1178 39.9298C37.4435 38.5312 36.0164 37.7287 35.428 37.7626C35.0329 37.7852 34.7685 37.9661 34.7685 37.9661C34.4956 38.1526 34.362 38.4294 34.3251 38.5538C34.1318 39.2234 35.4593 40.1756 36.7015 41.1306C37.4406 41.6985 38.5322 42.566 39.8426 43.7075C39.8426 43.7075 39.8483 43.7018 39.8483 43.699C39.8398 43.8403 39.8369 43.9815 39.8398 44.1228C38.6061 43.3543 37.4236 42.6451 36.7243 42.2834C36.5338 42.1845 36.1159 41.9754 35.7009 42.08C35.2973 42.1817 35.0869 42.5377 35.0556 42.5857C35.0301 42.631 34.8993 42.8655 34.9021 43.1254C34.9078 43.7272 35.627 44.2923 35.9113 44.5099C37.1592 45.4649 39.1945 46.8551 40.7864 47.9231C41.6051 49.4771 42.9155 50.6836 44.587 51.8618C46.8469 53.4554 49.0584 54.5404 51.5202 54.3793C53.9762 54.2126 55.8495 53.2407 57.123 51.4521C58.4363 49.6127 58.7689 47.4936 58.1321 45.1089L58.1378 45.1117ZM55.0706 49.9744C54.124 51.2996 52.7368 52.0229 50.9147 52.1444C49.0897 52.263 47.4865 51.3617 45.8122 50.1807C44.189 49.0363 42.9866 47.9598 42.5005 46.2108C42.0087 44.459 42.2418 42.922 43.1856 41.5968C44.1577 40.2321 45.562 39.4777 47.404 39.3364C49.2404 39.1923 50.7015 40.0061 52.3246 41.1476C54.0018 42.3286 55.3463 43.4956 55.8211 45.2671C56.2929 47.0359 56.0456 48.6069 55.0706 49.9716V49.9744Z" fill="white"/>
<path d="M55.3464 14.9949C53.1575 14.4072 51.0341 14.8904 48.7714 15.8482C44.3909 16.936 42.6256 17.0886 40.2577 17.5152C39.3651 17.6763 39.1235 18.1482 39.0126 18.4731C38.8364 18.9845 39.1149 19.5326 39.4134 19.8406C39.7886 20.2277 40.2889 20.3294 40.7011 20.3775C41.6562 20.4905 42.3328 20.4848 42.8786 20.4255C42.8189 20.5385 42.7592 20.6515 42.7023 20.7674C42.5005 21.1856 42.347 21.6009 42.2162 22.0134C41.1389 22.4203 40.0615 22.8272 38.9813 23.234C36.494 24.1467 34.7686 25.1158 34.4246 25.7007C34.1943 26.0934 34.2086 26.4353 34.2086 26.4353C34.2228 26.7913 34.4189 27.0597 34.5212 27.1558C35.0756 27.6757 36.892 26.8733 38.6516 26.1584C39.4447 25.8363 40.5363 25.4068 41.8837 24.918C41.895 25.0282 41.9178 25.1384 41.932 25.2458C40.6613 25.7318 39.3878 26.2149 38.1172 26.7009C35.266 27.7605 33.2705 28.8398 32.8526 29.4529C32.5712 29.8655 32.5684 30.213 32.5684 30.213C32.5684 30.5747 32.773 30.8374 32.8839 30.9307C33.4837 31.4336 35.5673 30.521 37.5913 29.6988C38.7795 29.2156 40.5533 28.5177 42.7905 27.7266C42.8701 27.8678 42.9525 28.0035 43.0406 28.1363C42.4664 28.351 41.895 28.5657 41.3208 28.7805C39.2656 29.5236 37.8528 30.3486 37.5884 30.8742C37.4094 31.2245 37.4349 31.5438 37.4349 31.5438C37.4605 31.8716 37.6368 32.1258 37.7249 32.2191C38.2138 32.7192 39.7062 32.0524 41.1588 31.4619C42.0229 31.1115 43.3249 30.6029 44.9736 30.0463C44.9736 30.0435 44.9736 30.0406 44.9708 30.0378C45.0901 30.1141 45.2095 30.1876 45.3346 30.2582C44.0469 30.9363 42.8388 31.6003 42.1764 32.0185C41.9945 32.1343 41.6022 32.3886 41.4885 32.7983C41.3748 33.1967 41.5795 33.5555 41.6079 33.6064C41.6335 33.6516 41.7728 33.8805 42.0002 34.0076C42.5289 34.3043 43.3789 33.9681 43.7115 33.8296C45.1669 33.2334 47.3955 32.1739 49.1238 31.3375C50.8863 31.411 52.5918 30.8855 54.4566 30.035C56.9752 28.885 59.0276 27.526 60.1163 25.3249C61.1993 23.1295 61.2875 21.0302 60.3693 19.0382C59.4227 16.9897 57.7427 15.6448 55.3464 14.9949ZM58.0497 20.0667C58.7319 21.5416 58.6665 23.0984 57.8621 24.7287C57.0548 26.359 55.4686 27.2886 53.601 28.1391C51.7931 28.9641 50.2524 29.4614 48.4871 29.0065C46.7161 28.5516 45.491 27.5853 44.8087 26.1076C44.1066 24.5874 44.1521 23.0023 44.9509 21.3466C45.744 19.6937 47.1823 18.8404 48.9902 18.0182C50.8578 17.1649 52.5464 16.5913 54.3287 17.0688C56.1053 17.5492 57.3504 18.5465 58.0525 20.0667H58.0497Z" fill="white"/>
<path d="M27.7098 2.33672C26.1037 3.92747 25.4613 5.99572 25.1656 8.42282C23.9234 12.7373 23.1729 14.3337 22.3599 16.5857C22.0529 17.4333 22.3457 17.8797 22.5731 18.1369C22.9313 18.5437 23.5482 18.5776 23.9632 18.4759C24.4891 18.3459 24.8274 17.9673 25.0747 17.6367C25.6517 16.871 25.9843 16.2862 26.206 15.786C26.2743 15.8934 26.3425 16.0036 26.4164 16.111C26.6807 16.4952 26.965 16.8343 27.2578 17.1536C27.073 18.2838 26.8883 19.4168 26.7063 20.547C26.2572 23.1436 26.2401 25.1158 26.5756 25.7035C26.8001 26.0991 27.1071 26.2573 27.1071 26.2573C27.4227 26.4212 27.7553 26.3901 27.8917 26.3477C28.6223 26.1302 28.8326 24.1664 29.0885 22.2931C29.205 21.4511 29.3756 20.2927 29.6229 18.8913C29.7252 18.9365 29.8304 18.9732 29.9327 19.0128C29.7195 20.3492 29.5063 21.6857 29.2931 23.0249C28.79 26.0087 28.736 28.2662 29.06 28.933C29.2789 29.3795 29.5831 29.5575 29.5831 29.5575C29.8958 29.7411 30.2283 29.6959 30.3676 29.6451C31.1039 29.3823 31.354 27.1304 31.6497 24.9774C31.8231 23.7144 32.1016 21.8382 32.5309 19.5157C32.6929 19.5157 32.8549 19.5157 33.0141 19.5044C32.9146 20.1062 32.8151 20.7052 32.7156 21.307C32.3347 23.4488 32.349 25.0763 32.673 25.5679C32.8891 25.8985 33.179 26.0341 33.179 26.0341C33.4775 26.1754 33.7873 26.1528 33.9124 26.1217C34.5918 25.9522 34.7595 24.3331 34.9699 22.7876C35.0978 21.8665 35.3053 20.4961 35.6436 18.7952C35.6407 18.7952 35.6379 18.7952 35.635 18.7952C35.7601 18.7302 35.8852 18.6624 36.0103 18.5918C35.9562 20.0384 35.9307 21.4116 35.9648 22.1914C35.9733 22.4062 36.0017 22.8695 36.2974 23.1747C36.5873 23.4714 37.0023 23.477 37.062 23.477C37.1132 23.477 37.3833 23.4714 37.6078 23.3414C38.1309 23.0362 38.2616 22.1349 38.3099 21.7789C38.5175 20.2277 38.7108 17.778 38.8444 15.8736C39.7881 14.3903 40.1861 12.6611 40.3765 10.6324C40.6352 7.89163 40.4732 5.44475 39.103 3.40475C37.7244 1.36192 35.9392 0.237379 33.7447 0.0339437C31.4848 -0.175142 29.4751 0.596216 27.7126 2.33672H27.7098ZM33.4803 2.5458C35.1063 2.69838 36.431 3.5319 37.4486 5.03788C38.4663 6.54952 38.4805 8.37761 38.29 10.412C38.1053 12.3785 37.7698 13.9551 36.4878 15.2492C35.2058 16.5461 33.7504 17.1168 32.1244 16.9671C30.4501 16.8117 29.0885 15.9782 28.0452 14.4665C27.002 12.9577 26.9792 11.2935 27.164 9.32415C27.3544 7.2898 27.6984 5.5493 29.006 4.25522C30.3136 2.96398 31.8032 2.39323 33.4803 2.54863V2.5458Z" fill="white"/>
<path d="M2.86328 19.7954C3.44602 21.9738 4.92703 23.5589 6.89413 25.031C10.0324 28.2577 11.0472 29.7015 12.6021 31.5268C13.1877 32.2134 13.7221 32.1852 14.0576 32.1202C14.5891 32.0156 14.9302 31.5014 15.0496 31.0945C15.2003 30.5774 15.0383 30.0971 14.8734 29.7157C14.4953 28.8369 14.1514 28.2577 13.8245 27.8169C13.9524 27.8141 14.0803 27.8085 14.2111 27.7972C14.6773 27.7604 15.115 27.687 15.5386 27.5937C16.4312 28.3171 17.3266 29.0432 18.2192 29.7665C20.2573 31.4534 21.9658 32.4507 22.6451 32.4564C23.1028 32.4592 23.3928 32.2756 23.3928 32.2756C23.6941 32.0863 23.8305 31.7839 23.8646 31.6483C24.0409 30.9109 22.4348 29.7496 20.931 28.5911C20.2545 28.0712 19.3335 27.3451 18.2334 26.4296C18.3243 26.3646 18.4068 26.2912 18.4949 26.2234C19.5524 27.0767 20.6127 27.9271 21.6701 28.7804C24.0181 30.7046 25.9568 31.8828 26.7016 31.9337C27.2019 31.9704 27.506 31.7952 27.506 31.7952C27.8216 31.6172 27.9495 31.3064 27.9751 31.1652C28.1144 30.3994 26.2752 29.0573 24.5497 27.7294C23.5349 26.9495 22.0397 25.7713 20.2318 24.2399C20.3142 24.1014 20.3909 23.9602 20.462 23.8189C20.9367 24.206 21.4086 24.5902 21.8833 24.9773C23.5576 26.3759 24.9846 27.1784 25.5731 27.1445C25.9682 27.1219 26.2325 26.941 26.2325 26.941C26.5054 26.7546 26.639 26.4777 26.676 26.3533C26.8693 25.6837 25.5418 24.7315 24.2996 23.7765C23.5605 23.2086 22.4689 22.3411 21.1585 21.1997C21.1585 21.1997 21.1528 21.2053 21.1528 21.2081C21.1613 21.0669 21.1641 20.9256 21.1613 20.7843C22.395 21.5528 23.5775 22.262 24.2768 22.6237C24.4673 22.7226 24.8851 22.9317 25.3002 22.8271C25.7038 22.7254 25.9142 22.3694 25.9454 22.3214C25.971 22.2762 26.1018 22.0416 26.0989 21.7817C26.0933 21.1799 25.3741 20.6148 25.0898 20.3972C23.8419 19.4422 21.8066 18.0521 20.2147 16.984C19.396 15.43 18.0856 14.2235 16.4141 13.0453C14.1542 11.4517 11.9426 10.3667 9.48093 10.5278C7.02489 10.6945 5.1516 11.6665 3.8781 13.455C2.56481 15.2944 2.23222 17.4135 2.86897 19.7982L2.86328 19.7954ZM5.93048 14.9327C6.87708 13.6076 8.26428 12.8842 10.0864 12.7627C11.9114 12.6441 13.5146 13.5454 15.1889 14.7265C16.8121 15.8708 18.0145 16.9473 18.5006 18.6963C18.9924 20.4481 18.7593 21.9851 17.8155 23.3103C16.8433 24.675 15.4391 25.4294 13.5971 25.5707C11.7607 25.7148 10.2996 24.901 8.67646 23.7595C6.99931 22.5785 5.65475 21.4116 5.18003 19.64C4.70815 17.8712 4.95546 16.3003 5.93048 14.9355V14.9327Z" fill="white"/>
<path d="M5.65429 49.9151C7.84311 50.5028 9.96656 50.0196 12.2293 49.0618C16.6098 47.974 18.3751 47.8214 20.743 47.3948C21.6356 47.2337 21.8772 46.7618 21.988 46.4369C22.1643 45.9255 21.8857 45.3774 21.5872 45.0694C21.212 44.6823 20.7117 44.5806 20.2995 44.5325C19.3444 44.4195 18.6678 44.4252 18.1221 44.4845C18.1818 44.3715 18.2415 44.2585 18.2983 44.1426C18.5001 43.7244 18.6536 43.3091 18.7844 42.8966C19.8618 42.4897 20.9391 42.0828 22.0193 41.676C24.5066 40.7633 26.2321 39.7942 26.576 39.2093C26.8063 38.8166 26.7921 38.4747 26.7921 38.4747C26.7779 38.1187 26.5817 37.8503 26.4794 37.7542C25.9251 37.2343 24.1086 38.0367 22.3491 38.7516C21.556 39.0737 20.4644 39.5032 19.117 39.992C19.1056 39.8818 19.0829 39.7716 19.0687 39.6642C20.3393 39.1782 21.6128 38.6951 22.8835 38.2091C25.7346 37.1495 27.7302 36.0702 28.148 35.4571C28.4294 35.0445 28.4323 34.697 28.4323 34.697C28.4323 34.3353 28.2276 34.0726 28.1168 33.9793C27.517 33.4764 25.4333 34.389 23.4094 35.2112C22.2211 35.6944 20.4473 36.3923 18.2102 37.1834C18.1306 37.0422 18.0482 36.9065 17.96 36.7737C18.5342 36.559 19.1056 36.3443 19.6798 36.1295C21.735 35.3864 23.1478 34.5614 23.4122 34.0358C23.5913 33.6855 23.5657 33.3662 23.5657 33.3662C23.5401 33.0384 23.3639 32.7842 23.2758 32.6909C22.7868 32.1908 21.2944 32.8576 19.8419 33.4481C18.9777 33.7985 17.6758 34.3071 16.027 34.8637C16.027 34.8665 16.027 34.8694 16.0299 34.8722C15.9105 34.7959 15.7911 34.7224 15.666 34.6518C16.9537 33.9737 18.1619 33.3097 18.8242 32.8915C19.0061 32.7757 19.3984 32.5214 19.5121 32.1117C19.6258 31.7133 19.4211 31.3545 19.3927 31.3036C19.3671 31.2584 19.2278 31.0295 19.0004 30.9024C18.4717 30.6057 17.6218 30.9419 17.2892 31.0804C15.8337 31.6766 13.6051 32.7361 11.8768 33.5725C10.1144 33.499 8.4088 34.0245 6.54403 34.875C4.02546 36.025 1.97308 37.384 0.884355 39.5851C-0.198687 41.7805 -0.286809 43.8798 0.631361 45.8718C1.57796 47.9203 3.25795 49.2652 5.65429 49.9151ZM2.95095 44.8433C2.26872 43.3684 2.3341 41.8116 3.13856 40.1813C3.94587 38.551 5.53206 37.6214 7.39966 36.7709C9.20758 35.9459 10.7483 35.4486 12.5136 35.9035C14.2845 36.3584 15.5097 37.3247 16.1919 38.8024C16.894 40.3226 16.8486 41.9077 16.0498 43.5634C15.2567 45.2163 13.8183 46.0696 12.0104 46.8918C10.1428 47.7451 8.45428 48.3187 6.67195 47.8412C4.89531 47.3609 3.65023 46.3635 2.9481 44.8433H2.95095Z" fill="white"/>
<path d="M33.2901 62.5732C34.8962 60.9825 35.5386 58.9142 35.8342 56.4871C37.0765 52.1726 37.8269 50.5762 38.6399 48.3243C38.9469 47.4766 38.6541 47.0302 38.4267 46.7731C38.0686 46.3662 37.4517 46.3323 37.0367 46.434C36.5108 46.564 36.1725 46.9426 35.9252 47.2732C35.3482 48.0389 35.0156 48.6238 34.7938 49.1239C34.7256 49.0165 34.6574 48.9063 34.5835 48.799C34.3191 48.4147 34.0349 48.0756 33.7421 47.7563C33.9268 46.6262 34.1116 45.4931 34.2935 44.3629C34.7427 41.7663 34.7597 39.7941 34.4243 39.2064C34.1997 38.8108 33.8927 38.6526 33.8927 38.6526C33.5772 38.4887 33.2446 38.5198 33.1082 38.5622C32.3776 38.7798 32.1673 40.7435 31.9114 42.6168C31.7949 43.4588 31.6243 44.6172 31.377 46.0187C31.2747 45.9735 31.1695 45.9367 31.0672 45.8972C31.2804 44.5607 31.4935 43.2243 31.7067 41.885C32.2099 38.9013 32.2639 36.6437 31.9398 35.9769C31.721 35.5305 31.4168 35.3525 31.4168 35.3525C31.1041 35.1688 30.7715 35.214 30.6322 35.2649C29.896 35.5276 29.6458 37.7795 29.3502 39.9326C29.1768 41.1956 28.8982 43.0717 28.469 45.3942C28.307 45.3942 28.1449 45.3942 27.9857 45.4055C28.0852 44.8037 28.1847 44.2047 28.2842 43.6029C28.6651 41.4612 28.6509 39.8337 28.3269 39.342C28.1108 39.0115 27.8209 38.8758 27.8209 38.8758C27.5224 38.7346 27.2125 38.7572 27.0875 38.7882C26.4081 38.9578 26.2404 40.5768 26.03 42.1223C25.9021 43.0434 25.6946 44.4138 25.3563 46.1147C25.3592 46.1147 25.362 46.1147 25.3648 46.1147C25.2398 46.1797 25.1147 46.2475 24.9896 46.3182C25.0436 44.8715 25.0692 43.4983 25.0351 42.7185C25.0266 42.5038 24.9981 42.0404 24.7025 41.7352C24.4126 41.4386 23.9975 41.4329 23.9378 41.4329C23.8867 41.4329 23.6166 41.4386 23.3921 41.5685C22.869 41.8737 22.7382 42.775 22.6899 43.131C22.4824 44.6822 22.2891 47.1319 22.1555 49.0363C21.2118 50.5197 20.8138 52.2489 20.6233 54.2776C20.3647 57.0183 20.5267 59.4652 21.8968 61.5052C23.2698 63.5367 25.055 64.6612 27.2495 64.8647C29.5094 65.0738 31.5191 64.3024 33.2816 62.5619L33.2901 62.5732ZM27.5196 62.3641C25.8936 62.2115 24.5689 61.378 23.5512 59.872C22.5336 58.3604 22.5194 56.5323 22.7098 54.498C22.8946 52.5314 23.23 50.9548 24.5121 49.6607C25.7941 48.3638 27.2495 47.7931 28.8755 47.9428C30.5498 48.0982 31.9114 48.9317 32.9547 50.4434C33.9979 51.9522 34.0206 53.6164 33.8359 55.5858C33.6454 57.6201 33.3015 59.3606 31.9939 60.6547C30.6862 61.9459 29.1967 62.5167 27.5196 62.3613V62.3641Z" fill="white"/>
<path d="M17.6701 67.9984C17.6559 67.8317 17.7127 67.6848 17.8463 67.5548C17.9771 67.4249 18.142 67.3825 18.341 67.3655C18.5399 67.3486 18.7247 67.3599 18.8754 67.4672C19.026 67.5718 19.1085 67.7074 19.1255 67.8741C19.1426 68.0408 19.08 68.1793 18.9493 68.3064C18.8185 68.4336 18.6394 68.4759 18.4348 68.4957C18.2301 68.5155 18.0709 68.4957 17.9202 68.3968C17.7696 68.2951 17.6872 68.1623 17.6729 68.0013L17.6701 67.9984Z" fill="white"/>
<path d="M43.1828 67.9984C43.1686 67.8317 43.2254 67.6848 43.359 67.5548C43.4898 67.4249 43.6547 67.3825 43.8537 67.3655C44.0526 67.3486 44.2374 67.3599 44.3881 67.4672C44.5387 67.5718 44.6212 67.7074 44.6382 67.8741C44.6553 68.0408 44.5927 68.1793 44.462 68.3064C44.3312 68.4336 44.1521 68.4759 43.9475 68.4957C43.7428 68.5155 43.5836 68.4957 43.4329 68.3968C43.2823 68.2951 43.1998 68.1623 43.1856 68.0013L43.1828 67.9984Z" fill="white"/>
<path d="M6.58629 72.9797C6.4271 72.8639 6.28497 72.6745 6.15705 72.4118L5.47198 70.9849L4.43726 68.8319L3.7266 67.3513H3.41391L2.7999 68.6849L2.54975 69.2274L1.74529 70.9764L1.48377 71.5472L1.2791 71.9908C1.15118 72.2535 1.02895 72.4711 0.906712 72.635C0.784479 72.8017 0.653718 72.9232 0.511586 73.0023C0.369455 73.0786 0.198897 73.1351 -0.00292969 73.169V73.5052C0.187527 73.4939 0.369455 73.4855 0.540013 73.4826C0.71057 73.4826 0.886814 73.4798 1.07158 73.4798C1.22224 73.4798 1.3729 73.4798 1.52072 73.4826C1.67138 73.4855 1.83057 73.4883 2.00112 73.4911C2.17168 73.4939 2.35645 73.4996 2.55259 73.5052V73.169C2.21148 73.152 1.96417 73.0871 1.80783 72.974C1.65148 72.861 1.57473 72.6915 1.57473 72.4626C1.57473 72.2733 1.63443 72.0445 1.74529 71.7845C2.18021 72.1123 2.70894 72.2027 3.32579 72.2027C3.7664 72.2027 4.15584 72.1518 4.50264 71.9964L4.68457 72.3779C4.7869 72.5785 4.82954 72.7339 4.80964 72.8469C4.78974 72.9571 4.70447 73.0362 4.55949 73.0842C4.41168 73.1294 4.19279 73.1577 3.89716 73.169V73.5052C4.04213 73.4939 4.25817 73.4855 4.55096 73.4826C4.84091 73.4826 5.1934 73.4798 5.60274 73.4798C5.96659 73.4798 6.28781 73.4798 6.56355 73.4826C6.83928 73.4855 7.07238 73.4939 7.25715 73.5052V73.169C6.9672 73.1577 6.74547 73.0955 6.58629 72.9797ZM3.32295 71.7195C2.84539 71.7195 2.4332 71.6771 2.10346 71.4059C2.05513 71.3663 2.01818 71.3211 1.97554 71.2788L2.94488 69.154L3.04721 68.9279L3.14955 69.1427L4.2866 71.5415C4.00518 71.6884 3.6868 71.7195 3.32011 71.7195H3.32295Z" fill="white"/>
<path d="M16.1862 72.3102C16.1066 72.5221 16.0043 72.6803 15.882 72.7877C15.7626 72.8922 15.6063 72.9459 15.4244 72.9459C15.2169 72.9459 15.0662 72.8894 14.9695 72.7792C14.8729 72.6662 14.8274 72.4825 14.8274 72.2226V69.2954C14.8956 69.2812 14.9667 69.2643 15.0378 69.2445C15.2424 69.1908 15.4301 69.123 15.612 69.0495V68.5155C15.4073 68.6286 15.1742 68.7105 14.9184 68.7783C14.8871 68.7868 14.8587 68.7924 14.8303 68.8009V67.5266C14.6569 67.5831 14.4721 67.6255 14.2731 67.6481C14.0741 67.6707 13.8609 67.682 13.6364 67.682V68.7387C13.4601 68.6483 13.318 68.5353 13.21 68.3997V69.1089C13.2725 69.1456 13.3294 69.1852 13.4004 69.2163C13.48 69.253 13.5596 69.2784 13.6392 69.301V71.9485C13.6392 72.4769 13.7557 72.8696 13.9945 73.1239C14.2305 73.3782 14.583 73.5053 15.052 73.5053C15.4272 73.5053 15.7257 73.4206 15.9474 73.2482C16.1691 73.0759 16.3454 72.7961 16.4705 72.4034L16.1947 72.3073L16.1862 72.3102Z" fill="white"/>
<path d="M17.0556 73.5052V73.1605C17.3853 73.1548 17.6127 73.1068 17.7378 73.0192C17.8629 72.9316 17.9226 72.7677 17.9226 72.5247V70.0666C17.9226 69.8094 17.8629 69.6173 17.7407 69.493C17.6213 69.3687 17.391 69.3008 17.0527 69.2895V68.9448C17.1721 68.9505 17.2915 68.9561 17.4166 68.9618C17.5417 68.9674 17.6667 68.9703 17.7975 68.9703C18.0505 68.9703 18.2921 68.959 18.5167 68.9392C18.7413 68.9194 18.9516 68.8883 19.1478 68.8459V72.5219C19.1478 72.7621 19.216 72.9288 19.3524 73.0164C19.4889 73.104 19.7191 73.152 20.0432 73.1576V73.5024C19.9551 73.4967 19.83 73.491 19.6708 73.4882C19.5116 73.4882 19.3354 73.4798 19.1392 73.4741C18.9431 73.4684 18.7469 73.4656 18.5451 73.4656C18.2722 73.4656 17.9908 73.4713 17.7037 73.4797C17.4137 73.4882 17.1977 73.4967 17.0556 73.5024V73.5052Z" fill="white"/>
<path d="M42.5684 73.5985V73.2481C42.9066 73.2425 43.1369 73.1944 43.2648 73.104C43.3927 73.0136 43.4553 72.8469 43.4553 72.6011V70.0949C43.4553 69.8321 43.3927 69.6372 43.2705 69.51C43.1483 69.3857 42.9152 69.315 42.5684 69.3037V68.9534C42.6877 68.959 42.8128 68.9647 42.9379 68.9703C43.0658 68.976 43.1937 68.9788 43.3273 68.9788C43.586 68.9788 43.8305 68.9675 44.0607 68.9477C44.291 68.928 44.5042 68.8969 44.7032 68.8545V72.6011C44.7032 72.8469 44.7714 73.0136 44.9107 73.104C45.05 73.1944 45.2831 73.2425 45.6157 73.2481V73.5985C45.5247 73.5928 45.3996 73.5872 45.2347 73.5844C45.0727 73.5844 44.8908 73.5759 44.6918 73.5702C44.4928 73.5646 44.291 73.5618 44.0863 73.5618C43.8077 73.5618 43.5235 73.5674 43.2279 73.5759C42.9322 73.5844 42.7133 73.5928 42.5684 73.5985Z" fill="white"/>
<path d="M33.2475 73.0193C33.1224 72.9288 33.0627 72.765 33.0627 72.5305V71.3409C33.0627 71.2957 33.0684 71.2533 33.0684 71.2053C33.0684 71.1629 33.0627 71.1262 33.0627 71.0866C33.0485 70.482 32.949 69.948 32.5994 69.527C32.2412 69.0918 31.8091 68.8743 31.306 68.8601C31.2889 68.8601 31.2747 68.8545 31.2577 68.8545C30.7233 68.8545 30.2684 69.0834 29.8961 69.527C29.8932 69.5298 29.8904 69.5326 29.8875 69.5354C29.8648 69.5637 29.8506 69.5948 29.8307 69.6258C29.8079 69.5948 29.7937 69.558 29.7681 69.527C29.3958 69.0777 28.9495 68.8545 28.4264 68.8545C28.3809 68.8545 28.3354 68.8658 28.29 68.8686C27.8408 68.9054 27.4514 69.1031 27.1216 69.4676V68.863C26.9283 68.9054 26.718 68.9336 26.4991 68.9562C26.2774 68.976 26.0443 68.9873 25.797 68.9873C25.6605 68.9873 25.5298 68.9845 25.4019 68.9788C25.2739 68.9732 25.1517 68.9675 25.0352 68.9619V69.3037C25.3592 69.315 25.5838 69.38 25.7117 69.4959C25.8396 69.6145 25.9022 69.8067 25.9022 70.0751V72.5276C25.9022 72.7621 25.8396 72.926 25.7117 73.0164C25.5838 73.1069 25.3592 73.1549 25.0352 73.1605V73.5024C25.2114 73.4968 25.4417 73.4883 25.7202 73.4798C26.0017 73.4713 26.2689 73.4657 26.5304 73.4657C26.7493 73.4657 26.9625 73.4713 27.1757 73.4798C27.3889 73.4883 27.5651 73.4968 27.7072 73.5024V73.1605C27.5253 73.1549 27.4002 73.1153 27.3121 73.0588C27.2695 73.0221 27.2325 72.9797 27.1927 72.9401C27.1472 72.8469 27.1245 72.7085 27.1245 72.5276V70.6543C27.1614 70.3944 27.2382 70.1599 27.4059 69.9564C27.6788 69.6287 28.0085 69.462 28.3951 69.4535C28.5089 69.4931 28.6055 69.558 28.6794 69.6541C28.8073 69.818 28.8727 70.0695 28.8727 70.4113V72.5305C28.8727 72.6406 28.8613 72.7339 28.8443 72.813C28.8244 72.9006 28.7931 72.9712 28.7505 73.0193C28.668 73.1097 28.5202 73.1577 28.3099 73.1634V73.5052C28.4207 73.4996 28.5913 73.4911 28.8187 73.4826C29.0461 73.4742 29.2792 73.4685 29.5208 73.4685C29.7283 73.4685 29.9472 73.4742 30.1832 73.4826C30.4191 73.4911 30.5868 73.4996 30.6863 73.5052V73.1634C30.4617 73.1577 30.3082 73.1097 30.2258 73.0193C30.1434 72.9288 30.1007 72.765 30.1007 72.5305V72.197C30.1007 72.197 30.1064 72.1857 30.1064 72.1773C30.1064 72.1744 30.1007 72.1716 30.1007 72.166V70.5074C30.1007 70.4 30.0922 70.304 30.0808 70.2051C30.0865 70.1938 30.0922 70.1853 30.0979 70.1768C30.1377 70.1005 30.1775 70.0271 30.2372 69.9564C30.5157 69.623 30.854 69.4535 31.2548 69.4507C31.3088 69.4507 31.36 69.462 31.414 69.4676C31.5107 69.51 31.5903 69.5693 31.6528 69.6541C31.7807 69.818 31.8433 70.0695 31.8433 70.4113V72.5305C31.8433 72.618 31.8319 72.6887 31.8205 72.7565C31.8006 72.8695 31.7722 72.9627 31.721 73.0193C31.6386 73.1097 31.4879 73.1577 31.269 73.1634V73.5052C31.3827 73.4996 31.5476 73.4911 31.7693 73.4826C31.9911 73.4742 32.2299 73.4685 32.4914 73.4685C32.6676 73.4685 32.8524 73.4713 33.04 73.477C33.2305 73.4826 33.4039 73.4883 33.5659 73.4911C33.7279 73.4939 33.853 73.4996 33.9411 73.5052V73.1634C33.6057 73.1577 33.3754 73.1097 33.2504 73.0193H33.2475Z" fill="white"/>
<path d="M41.5083 69.5665C41.1274 69.1173 40.6697 68.894 40.141 68.9025C39.5952 68.911 39.1347 69.1483 38.7595 69.6089C38.6742 69.7134 38.606 69.8236 38.5491 69.9395V66.4048C38.3644 66.4472 38.154 66.4782 37.9209 66.498C37.6878 66.5178 37.4377 66.5291 37.1676 66.5291C37.0482 66.5291 36.9203 66.5263 36.7867 66.5206C36.6531 66.515 36.5309 66.5093 36.4229 66.5037V66.8512C36.764 66.8625 36.9971 66.9303 37.1221 67.0518C37.2472 67.1733 37.3098 67.3683 37.3098 67.6339V72.3157C37.3098 72.4655 37.3012 72.5926 37.2842 72.7028C37.2671 72.813 37.2358 72.9091 37.1989 72.991C37.1591 73.0729 37.1022 73.152 37.0255 73.2227L37.2586 73.5165C37.3837 73.4289 37.5144 73.3442 37.6537 73.2679C37.7902 73.1916 37.938 73.1323 38.0972 73.0955C38.2563 73.056 38.407 73.0334 38.5491 73.0277V72.5276C38.6174 72.6689 38.7026 72.8045 38.8135 72.9317C39.2029 73.3837 39.672 73.6041 40.2178 73.5957C40.7465 73.5872 41.1956 73.3527 41.5623 72.8893C41.929 72.4287 42.0143 71.9004 42.0029 71.259C41.9916 70.5978 41.8892 70.0158 41.5083 69.5665ZM41.1985 72.4655C40.9256 72.8102 40.593 72.9825 40.2007 72.991C39.7971 72.9966 39.4502 72.8328 39.1603 72.4994C38.8704 72.166 38.822 71.7676 38.8135 71.2929C38.805 70.8012 38.8419 70.3774 39.1205 70.0327C39.3991 69.6908 39.7402 69.5156 40.1439 69.5072C40.5361 69.5015 40.8744 69.6654 41.1587 69.9988C41.4429 70.3322 41.4941 70.7702 41.5026 71.2618C41.5112 71.7365 41.4714 72.1207 41.1985 72.4655Z" fill="white"/>
<path d="M50.0157 70.4001H49.9873C49.9873 70.4001 49.9873 70.4171 49.9901 70.4256C49.9987 70.4199 50.0072 70.4086 50.0157 70.4001Z" fill="white"/>
<path d="M51.011 69.9621C50.9115 69.7813 50.7836 69.6343 50.6358 69.5044C50.3942 69.2896 50.0985 69.137 49.7318 69.0636C49.5414 69.024 49.3538 69.0212 49.1662 69.041C48.9217 69.0664 48.6801 69.1399 48.4356 69.2416V68.8545C48.0746 68.9393 47.634 68.9816 47.1166 68.9816C46.9716 68.9816 46.838 68.9788 46.713 68.9732C46.5879 68.9675 46.4514 68.9619 46.3008 68.9562V69.3066C46.6277 69.3179 46.8551 69.3857 46.9887 69.5044C47.0143 69.527 47.0342 69.5552 47.0541 69.5835C47.1422 69.705 47.1877 69.8745 47.1877 70.0977V72.6039C47.1877 72.8441 47.1251 73.0108 47.0029 73.104C46.8807 73.1973 46.6447 73.2453 46.3008 73.251V73.6013C46.4458 73.5957 46.6618 73.5872 46.9489 73.5787C47.236 73.5702 47.5316 73.5646 47.8386 73.5646C48.0547 73.5646 48.2793 73.5674 48.5067 73.5731C48.7369 73.5787 48.9501 73.5844 49.1548 73.5872C49.3566 73.59 49.5186 73.5957 49.638 73.6013V73.251C49.186 73.2453 48.8734 73.1888 48.6971 73.0814C48.5664 73.0023 48.4839 72.878 48.4527 72.7141C48.4413 72.6576 48.4356 72.5983 48.4356 72.5333V69.7982C48.6459 69.6965 48.8506 69.6202 49.0581 69.5863C49.2088 69.5609 49.3595 69.5524 49.5158 69.5835C49.5272 69.5835 49.5385 69.5919 49.5499 69.5948C49.9678 69.688 50.2748 69.9056 50.4652 70.2531C50.488 70.2955 50.5022 70.3379 50.5164 70.3803C50.5249 70.3803 50.5363 70.3746 50.5448 70.3746C50.7353 70.3294 50.9257 70.2842 51.119 70.239C51.0878 70.1486 51.0565 70.0581 51.011 69.9706V69.9621Z" fill="white"/>
<path d="M50.4998 70.5074C50.4998 70.5074 50.5169 70.4904 50.5254 70.4819H50.4941C50.4941 70.4819 50.4941 70.4989 50.497 70.5074H50.4998Z" fill="white"/>
<path d="M56.3889 69.0466C56.2695 68.9364 56.1018 68.8799 55.8886 68.8799C55.6584 68.8799 55.4367 68.942 55.2178 69.0692C55.087 69.1455 54.9761 69.2331 54.8767 69.3348C54.8454 69.3065 54.8141 69.2783 54.78 69.2528C54.4474 69.0042 53.9841 68.8799 53.39 68.8799C52.7959 68.8799 52.3353 69.007 51.9942 69.2585C51.6531 69.51 51.4826 69.8688 51.4826 70.3378C51.4826 70.8069 51.6531 71.1487 51.9942 71.4002C52.1989 71.55 52.4519 71.6489 52.7447 71.711C52.4633 71.8636 52.2529 72.0218 52.1136 72.1857C51.9857 72.3383 51.9175 72.505 51.9033 72.683C51.6645 72.8186 51.457 72.9938 51.2893 73.2311C50.9481 73.7086 50.8458 74.2059 50.9851 74.723C51.1187 75.2259 51.4513 75.5961 51.9857 75.8334C52.5173 76.0736 53.046 76.0284 53.66 75.8645C54.2939 75.6978 54.8283 75.4604 55.1723 74.9914C55.5134 74.5224 55.6186 74.0336 55.485 73.5335C55.3457 73.0164 55.0074 72.635 54.4758 72.3891C53.9585 72.1518 53.4099 72.197 52.8015 72.3524C52.7703 72.3072 52.7532 72.2535 52.7532 72.1914C52.7532 72.1038 52.776 72.0247 52.8243 71.954C52.8669 71.8919 52.938 71.8269 53.0375 71.7591C53.1512 71.7704 53.2649 71.7788 53.39 71.7788C53.9841 71.7788 54.4474 71.6545 54.78 71.4059C55.1126 71.1572 55.2803 70.8012 55.2803 70.3407C55.2803 70.0299 55.2092 69.7699 55.0671 69.558C55.1382 69.4874 55.2092 69.4365 55.2775 69.3969C55.3457 69.3602 55.3997 69.3404 55.4395 69.3404C55.5162 69.3404 55.5703 69.3772 55.6015 69.4535C55.6328 69.5297 55.6669 69.6173 55.6982 69.7162C55.7323 69.8151 55.7778 69.9027 55.8403 69.979C55.9028 70.0553 55.9938 70.092 56.1189 70.092C56.2553 70.092 56.3634 70.0383 56.4458 69.9281C56.5282 69.8208 56.568 69.6823 56.568 69.51C56.568 69.3122 56.5083 69.1568 56.3861 69.0438L56.3889 69.0466ZM54.1546 72.8299C54.5498 73.0136 54.7999 73.2961 54.9022 73.6776C55.0017 74.0505 54.925 74.4094 54.6691 74.7597C54.4133 75.1073 54.0068 75.2627 53.5349 75.387C53.0801 75.5085 52.6992 75.5622 52.3041 75.387C51.909 75.209 51.6616 74.9349 51.5621 74.5619C51.4598 74.1777 51.5337 73.8104 51.7867 73.4543C52.0397 73.1012 52.4093 72.9571 52.8641 72.8384C53.336 72.7141 53.751 72.6463 54.1489 72.8299H54.1546ZM53.9784 71.1657C53.8562 71.3494 53.6629 71.4426 53.39 71.4426C53.1483 71.4426 52.9636 71.3494 52.8328 71.1657C52.702 70.982 52.6395 70.7051 52.6395 70.335C52.6395 69.9649 52.7049 69.6625 52.8328 69.4789C52.9607 69.2952 53.1512 69.202 53.3985 69.202C53.6629 69.202 53.8562 69.2952 53.9755 69.4789C54.0949 69.6625 54.1575 69.9479 54.1575 70.335C54.1575 70.7221 54.0978 70.9792 53.9755 71.1657H53.9784Z" fill="white"/>
<path d="M60.6929 72.1178C60.5365 72.4145 60.3432 72.632 60.1187 72.7705C59.8941 72.9089 59.624 72.9796 59.3085 72.9796C58.8651 72.9796 58.5239 72.8185 58.288 72.4936C58.0578 72.18 57.9412 71.7392 57.9355 71.1769C57.9554 71.1939 57.9696 71.2108 57.9895 71.2278C58.3306 71.4962 58.7229 71.5584 59.1948 71.5499C59.6837 71.5414 60.113 71.4679 60.4484 71.1882C60.5195 71.1289 60.5763 71.0667 60.6303 71.0046C60.8094 70.7955 60.9061 70.561 60.926 70.3038C60.9288 70.2643 60.9373 70.2304 60.9373 70.1908C60.9316 69.7924 60.7554 69.4562 60.4143 69.1821C60.0703 68.908 59.6496 68.8487 59.1607 68.8544C59.1294 68.8544 59.1038 68.8572 59.0726 68.86C59.0498 68.86 59.0299 68.8572 59.0072 68.8572C58.5353 68.8572 58.126 68.9504 57.7763 69.1397C57.4295 69.329 57.1566 69.6003 56.9577 69.9535C56.7587 70.3067 56.6592 70.7361 56.6592 71.2419C56.6592 71.7477 56.753 72.1574 56.9349 72.5134C57.1197 72.8666 57.3784 73.1378 57.7138 73.3215C58.0492 73.5079 58.4472 73.6012 58.9077 73.6012C59.3995 73.6012 59.823 73.491 60.1869 73.2706C60.5479 73.0502 60.8179 72.7338 60.9913 72.3212L60.6843 72.1206L60.6929 72.1178ZM59.1948 71.1826C58.8736 71.1882 58.6121 71.1571 58.3733 71.0046C58.3505 70.9904 58.325 70.9791 58.3051 70.9622C58.1885 70.8689 58.1004 70.7672 58.035 70.657C58.0037 70.6033 57.981 70.5468 57.9611 70.4903C58.0151 70.0947 58.1203 69.7839 58.2823 69.5692C58.3648 69.4618 58.4557 69.3799 58.5495 69.3177C58.7343 69.2471 58.939 69.2245 59.1692 69.2217C59.5331 69.216 59.8458 69.2415 60.1016 69.4449C60.3546 69.6483 60.4854 69.897 60.491 70.1936C60.4967 70.4818 60.3745 70.7277 60.1272 70.9339C60.0931 70.9622 60.0504 70.982 60.0135 71.0046C59.7832 71.143 59.5046 71.1797 59.192 71.1826H59.1948Z" fill="white"/>
<path d="M24.0743 71.2139C24.0288 71.1687 23.9748 71.1291 23.918 71.0895C23.6849 70.92 23.3637 70.7787 22.9429 70.6685C22.4739 70.5442 22.1527 70.4171 21.9736 70.2843C21.8002 70.1571 21.7149 69.9989 21.7092 69.8124C21.7092 69.8068 21.7092 69.8011 21.7092 69.7983C21.7092 69.6118 21.7746 69.4621 21.9054 69.3547C22.0361 69.2473 22.2238 69.1936 22.4711 69.1936C22.8236 69.1936 23.1277 69.2982 23.3779 69.5101C23.6309 69.7192 23.8071 70.0187 23.9094 70.4058H24.2449C24.242 70.2871 24.2392 70.1797 24.2392 70.078C24.2392 69.9678 24.2392 69.8661 24.2392 69.7729C24.2392 69.5949 24.2392 69.4366 24.2477 69.3038C24.2534 69.171 24.2676 69.0382 24.2903 68.9083H23.9492C23.9151 69.0043 23.8782 69.0721 23.8412 69.1117C23.8043 69.1513 23.7531 69.171 23.6906 69.171C23.628 69.171 23.557 69.1541 23.4802 69.1287C23.2045 68.9507 22.9003 68.8518 22.5649 68.8574C22.5251 68.8574 22.4881 68.8687 22.4483 68.8715C21.9566 68.9111 21.533 69.1371 21.1862 69.5638C21.0043 69.7898 20.8906 70.0413 20.8252 70.3154C20.8536 70.6177 20.9673 70.8748 21.1805 71.0867C21.1976 71.1037 21.2232 71.1206 21.2431 71.1376C21.4904 71.358 21.8514 71.5416 22.3375 71.6829C22.7724 71.8072 23.0765 71.9344 23.2499 72.0615C23.4262 72.1887 23.5115 72.3469 23.5115 72.5334C23.5115 72.7368 23.4347 72.895 23.2841 73.0024C23.1334 73.1098 22.9174 73.1635 22.6359 73.1635C22.2294 73.1635 21.894 73.042 21.6296 72.7961C21.3624 72.5532 21.1748 72.2 21.0583 71.7394H20.7229C20.7285 71.9993 20.7314 72.231 20.7314 72.4345C20.7314 72.6379 20.7314 72.8187 20.7229 72.9798C20.7172 73.1409 20.7086 73.3019 20.6973 73.4601H21.0327C21.1009 73.2906 21.2061 73.2058 21.3482 73.2058C21.4278 73.2058 21.5302 73.2313 21.6495 73.2793C21.6893 73.2963 21.7405 73.3132 21.7888 73.3302C21.8798 73.3612 21.9793 73.3951 22.0958 73.4291C22.2721 73.4799 22.4853 73.5053 22.7383 73.5053C22.8491 73.5053 22.9515 73.4969 23.0538 73.4856C23.4063 73.3895 23.719 73.1776 23.9862 72.8385C24.2335 72.5277 24.3444 72.183 24.3927 71.7987C24.3444 71.5671 24.242 71.3721 24.0743 71.211V71.2139Z" fill="white"/>
<path d="M50.0157 68.3628H49.9873C49.9873 68.3628 49.9873 68.3797 49.9901 68.3882C49.9987 68.3826 50.0072 68.3713 50.0157 68.3628Z" fill="white"/>
<path d="M11.9471 72.861C11.8192 72.7395 11.7567 72.5502 11.7567 72.2931V68.8403C11.5776 68.8799 11.3843 68.911 11.1768 68.9307C10.9693 68.9505 10.7419 68.9618 10.4945 68.9618C10.3666 68.9618 10.2472 68.959 10.1335 68.9533C10.0198 68.9477 9.91465 68.942 9.80947 68.9364V69.2726C10.088 69.2839 10.2785 69.3461 10.3894 69.4535C10.4974 69.5637 10.5542 69.753 10.5542 70.0214V72.1744C10.5258 72.3468 10.4718 72.505 10.3609 72.6491C10.1762 72.8893 9.94592 73.0136 9.67303 73.0221C9.39161 73.0305 9.14998 72.9203 8.94531 72.6887C8.69516 72.4061 8.68095 72.0275 8.67526 71.8523C8.64115 70.7673 8.80602 68.9223 8.81455 68.8403C8.6241 68.8799 8.41943 68.911 8.20339 68.9307C7.98735 68.9505 7.74857 68.9618 7.48989 68.9618C7.35628 68.9618 7.22836 68.959 7.10329 68.9533C6.97821 68.9477 6.85882 68.942 6.74512 68.9364V69.2726C7.05496 69.2839 7.27953 69.3461 7.41314 69.4535C7.54674 69.5637 7.61212 69.7558 7.61212 70.0299V71.8467C7.61212 72.392 7.7372 72.8045 7.99019 73.087C8.24034 73.3696 8.6042 73.508 9.07607 73.508C9.41719 73.508 9.72135 73.4346 9.9914 73.2877C10.2387 73.1549 10.4235 72.9599 10.5599 72.7226V73.4798C10.7561 73.4402 10.9636 73.4091 11.1796 73.3894C11.3957 73.3696 11.6288 73.3583 11.8761 73.3583C12.0097 73.3583 12.1404 73.3583 12.2655 73.3611C12.3934 73.3639 12.51 73.3724 12.6208 73.3837V73.0475C12.3025 73.0418 12.0807 72.9797 11.9528 72.8582L11.9471 72.861Z" fill="white"/>
</g>
<defs>
<clipPath id="clip0_601_3">
<rect width="61" height="76" fill="white"/>
</clipPath>
</defs>
</svg>
