<svg width="30" height="30" viewBox="0 0 30 30" fill="none" xmlns="http://www.w3.org/2000/svg">
<path d="M17.9135 19.9253L19.576 18.2627C19.8319 18.0038 20.1365 17.7981 20.4722 17.6578C20.8081 17.5176 21.1684 17.4454 21.5322 17.4454C21.8962 17.4454 22.2565 17.5176 22.5924 17.6578C22.9281 17.7981 23.2327 18.0038 23.4885 18.2627L25.4385 20.2128C25.6974 20.4686 25.903 20.7729 26.0432 21.1088C26.1835 21.4446 26.2557 21.8051 26.2557 22.1689C26.2557 22.5329 26.1835 22.8933 26.0432 23.2292C25.903 23.5649 25.6974 23.8693 25.4385 24.1251L24.551 25.0251C23.9395 25.6426 23.1486 26.0513 22.2911 26.1927C21.4336 26.3341 20.5534 26.2012 19.776 25.8127C13.0864 22.3691 7.6376 16.9246 4.18853 10.2378C3.7997 9.45957 3.66767 8.57808 3.81142 7.7201C3.95517 6.8621 4.3673 6.0717 4.98856 5.46271L5.87601 4.56275C6.39592 4.04597 7.09921 3.75586 7.83226 3.75586C8.56531 3.75586 9.2686 4.04597 9.78851 4.56275L11.751 6.52532C12.2678 7.04525 12.5579 7.74845 12.5579 8.48151C12.5579 9.21456 12.2678 9.91776 11.751 10.4377L10.0885 12.1003C11.1878 13.5872 12.3952 14.9908 13.701 16.3001C14.9992 17.6006 16.395 18.8001 17.876 19.8878L17.9135 19.9253Z" stroke="white" stroke-width="2" stroke-linecap="round" stroke-linejoin="round"/>
</svg>
