<svg width="38" height="30" fill="none" xmlns="http://www.w3.org/2000/svg"><path fill-rule="evenodd" clip-rule="evenodd" d="M12.113 29.74c14.01 0 21.672-11.427 21.672-21.336 0-.326 0-.648-.022-.97a15.343 15.343 0 003.8-3.882 15.356 15.356 0 01-4.374 1.18A7.555 7.555 0 0036.538.584a15.415 15.415 0 01-4.838 1.82C28.816-.615 23.991-.76 20.923 2.08a7.435 7.435 0 00-2.203 7.166C12.596 8.94 6.89 6.095 3.02 1.41 1 4.837 2.034 9.22 5.381 11.42a7.652 7.652 0 01-3.459-.938v.095c.002 3.57 2.558 6.643 6.111 7.35a7.693 7.693 0 01-3.438.128c.997 3.055 3.858 5.148 7.115 5.209A15.436 15.436 0 01.437 26.372a21.817 21.817 0 0011.676 3.363" fill="#BABABA"/></svg>