<svg width="38" height="30" viewBox="0 0 38 30" fill="none" xmlns="http://www.w3.org/2000/svg">
<path fill-rule="evenodd" clip-rule="evenodd" d="M12.1133 29.7405C26.1223 29.7405 33.7849 18.3127 33.7849 8.40369C33.7849 8.07838 33.7849 7.75552 33.7626 7.43387C35.2531 6.37389 36.5395 5.0578 37.5623 3.5519C36.1738 4.15865 34.6981 4.55656 33.189 4.73199C34.7779 3.79446 35.9678 2.32155 36.5377 0.583549C35.0415 1.45711 33.4062 2.07364 31.7003 2.40444C28.8157 -0.614678 23.9913 -0.760956 20.923 2.07906C18.9461 3.91025 18.1052 6.64055 18.7196 9.2448C12.5959 8.94143 6.88979 6.09416 3.02139 1.41016C0.999941 4.83679 2.03387 9.2188 5.38067 11.4192C4.16854 11.3844 2.98241 11.0631 1.92249 10.482V10.5772C1.92435 14.1464 4.48039 17.2196 8.03324 17.9269C6.91207 18.2284 5.73521 18.2722 4.59548 18.0547C5.59228 21.1104 8.45275 23.2033 11.7104 23.2636C9.01333 25.3506 5.68138 26.4839 2.25105 26.4803C1.64591 26.4784 1.04078 26.4437 0.4375 26.3724C3.92166 28.5728 7.97384 29.7405 12.1133 29.735" fill="#BABABA"/>
</svg>
